<?xml version="1.0" standalone="no"?>
<!DOCTYPE svg PUBLIC "-//W3C//DTD SVG 20010904//EN"
 "http://www.w3.org/TR/2001/REC-SVG-20010904/DTD/svg10.dtd">
<svg version="1.0" xmlns="http://www.w3.org/2000/svg"
 width="1240.000000pt" height="1240.000000pt" viewBox="0 0 1240.000000 1240.000000"
 preserveAspectRatio="xMidYMid meet">
<metadata>
Created by potrace 1.14, written by Peter Selinger 2001-2017
</metadata>
<g transform="translate(0.000000,1240.000000) scale(0.100000,-0.100000)"
fill="#000000" stroke="none">
<path d="M1154 10327 c-3 -8 -22 -14 -46 -15 -22 -1 -47 -7 -54 -12 -8 -8 -14
-8 -19 0 -3 5 -12 10 -18 10 -7 0 -6 -4 3 -10 12 -8 8 -10 -15 -11 -16 -1 -33
-1 -37 0 -5 0 -8 -5 -8 -11 0 -9 -3 -8 -10 2 -8 12 -10 12 -16 -3 -3 -9 -11
-14 -16 -11 -6 4 -14 0 -19 -7 -7 -12 -9 -12 -9 0 0 11 -4 10 -16 -5 -8 -10
-13 -13 -9 -6 3 6 1 12 -4 12 -6 0 -11 -5 -11 -11 0 -5 -4 -7 -10 -4 -5 3 -10
1 -10 -5 0 -7 -6 -10 -14 -7 -8 3 -17 0 -20 -8 -3 -8 -13 -11 -27 -8 -15 4
-20 3 -15 -5 4 -7 2 -12 -4 -12 -6 0 -8 -5 -4 -12 5 -9 2 -9 -9 1 -11 8 -17 9
-17 3 0 -6 -6 -9 -14 -6 -7 3 -16 -2 -20 -11 -3 -9 -10 -13 -16 -10 -6 3 -13
-1 -16 -9 -3 -9 -10 -13 -15 -10 -5 3 -12 -1 -15 -10 -3 -8 -12 -12 -20 -9 -7
3 -17 -2 -20 -11 -3 -9 -11 -13 -17 -9 -6 4 -8 0 -4 -9 4 -12 0 -14 -16 -10
-12 3 -19 1 -15 -3 11 -11 -29 -38 -44 -29 -6 4 -8 3 -5 -3 8 -13 -17 -36 -28
-25 -5 4 -6 3 -3 -3 3 -5 -5 -20 -18 -33 -13 -12 -24 -20 -24 -17 0 3 -6 0
-14 -7 -8 -7 -13 -15 -11 -18 2 -3 -3 -11 -11 -18 -8 -7 -14 -9 -15 -5 0 4 -4
0 -8 -10 -4 -10 -10 -18 -14 -18 -14 2 -35 -24 -30 -36 3 -7 0 -13 -7 -13 -6
0 -8 -5 -4 -12 4 -7 3 -8 -4 -4 -6 4 -19 -6 -29 -21 -10 -15 -25 -34 -33 -41
-13 -12 -13 -13 0 -6 12 7 13 5 3 -8 -7 -8 -10 -18 -6 -22 4 -4 -1 -4 -11 0
-14 5 -17 4 -12 -4 4 -7 2 -12 -4 -12 -6 0 -8 -4 -5 -10 3 -5 1 -10 -5 -10 -6
0 -9 -4 -5 -9 3 -6 -4 -15 -15 -21 -11 -6 -18 -16 -14 -21 3 -6 -2 -17 -12
-25 -11 -9 -13 -13 -4 -9 12 5 12 4 -1 -7 -9 -7 -15 -21 -13 -30 1 -10 -5 -22
-14 -28 -14 -8 -14 -9 -2 -10 11 0 10 -3 -4 -11 -15 -9 -16 -13 -5 -20 11 -7
10 -9 -3 -9 -11 0 -15 -5 -12 -15 4 -8 1 -15 -6 -15 -6 0 -9 -4 -5 -9 3 -6 -3
-15 -12 -21 -16 -10 -16 -11 -1 -6 12 3 15 1 11 -10 -3 -7 -9 -14 -13 -14 -5
0 -9 -10 -9 -22 -1 -50 -3 -58 -10 -58 -8 0 -10 -13 -12 -62 0 -14 -6 -29 -13
-31 -14 -6 -15 -44 -2 -66 6 -9 5 -12 -1 -8 -6 4 -10 -4 -10 -18 0 -16 4 -22
11 -18 6 4 6 0 -2 -9 -16 -20 -18 -5868 -1 -5868 5 0 7 5 3 12 -4 7 -3 8 4 4
6 -4 9 -13 6 -21 -4 -8 -9 -13 -13 -10 -4 2 -8 -2 -8 -10 0 -8 6 -15 14 -15 7
0 13 -7 13 -15 0 -9 -6 -12 -17 -8 -16 5 -16 4 0 -9 11 -8 18 -21 17 -29 -1
-7 -2 -29 -1 -47 1 -24 5 -31 13 -26 8 5 8 2 -1 -10 -12 -15 -12 -17 0 -14 10
2 14 -6 13 -30 0 -17 2 -32 6 -32 4 0 7 -6 8 -12 2 -23 7 -43 16 -57 7 -11 6
-12 -5 -6 -12 8 -12 6 0 -8 7 -9 18 -14 23 -11 6 4 5 -2 -1 -14 -9 -17 -8 -22
9 -27 11 -3 20 -11 20 -16 0 -6 -4 -8 -9 -5 -5 4 -4 -5 2 -19 7 -14 15 -25 20
-25 4 0 7 -6 7 -14 0 -7 7 -26 14 -42 8 -15 13 -31 10 -36 -3 -5 -2 -8 3 -7
22 4 33 -3 33 -21 0 -11 5 -20 10 -20 6 0 10 -7 10 -15 0 -9 6 -18 14 -21 9
-3 12 -12 9 -21 -4 -10 -2 -14 4 -10 6 4 17 -1 24 -10 12 -14 12 -16 -1 -9 -8
4 -6 0 4 -8 11 -9 16 -16 10 -16 -5 -1 2 -7 16 -15 16 -9 19 -15 10 -15 -9 -1
-6 -5 7 -10 13 -5 23 -16 23 -25 0 -14 12 -20 33 -16 5 1 6 -3 3 -8 -4 -5 -2
-12 4 -16 6 -4 8 -10 5 -15 -3 -5 3 -7 15 -5 11 2 19 1 17 -3 -3 -10 44 -56
72 -71 12 -7 19 -17 15 -23 -5 -7 -1 -9 9 -5 12 4 17 1 17 -10 0 -13 2 -14 17
-2 11 10 14 10 9 1 -4 -7 -2 -12 4 -12 6 0 8 -5 4 -12 -4 -6 -3 -8 4 -4 6 3
18 -1 26 -10 9 -8 16 -12 16 -7 0 4 5 0 11 -9 5 -10 18 -18 27 -18 22 -1 54
-25 45 -34 -4 -4 0 -4 9 -1 9 4 19 1 23 -4 3 -6 11 -9 16 -6 5 4 9 2 9 -2 0
-5 10 -9 22 -10 11 -1 24 -7 28 -13 4 -6 17 -12 28 -13 12 -1 22 -5 22 -9 0
-4 14 -8 31 -8 17 0 37 -7 46 -15 8 -8 19 -13 24 -10 5 4 15 3 21 -2 7 -4 21
-8 31 -9 36 -3 38 -4 31 -17 -6 -9 -4 -9 7 0 14 14 33 18 26 6 -7 -10 75 -10
90 0 6 4 15 2 19 -4 4 -7 3 -9 -3 -6 -5 3 -10 0 -10 -7 0 -8 8 -11 19 -8 10 2
15 9 11 16 -3 6 3 3 14 -6 22 -20 33 -23 33 -7 0 5 -5 7 -12 3 -7 -4 -8 -3 -4
5 6 9 11 9 22 0 8 -6 14 -8 14 -4 0 4 6 2 14 -4 11 -9 20 -10 35 -1 16 8 21 8
21 -1 0 -8 4 -8 15 1 9 7 15 8 15 2 0 -13 63 -10 72 3 5 6 8 5 8 -4 0 -11 3
-11 16 0 13 10 17 10 24 -1 7 -11 11 -11 24 -1 12 11 16 11 16 1 0 -9 4 -9 17
1 13 11 17 11 20 2 3 -7 9 -13 14 -13 6 0 8 4 5 8 -2 4 4 8 15 8 10 0 19 -4
19 -9 0 -4 6 -5 12 0 21 12 38 12 39 0 0 -7 4 -3 9 8 l9 20 0 -20 c1 -17 3
-17 11 -5 9 13 10 13 10 0 0 -13 1 -13 10 0 8 12 10 12 10 1 0 -10 3 -11 13
-2 10 7 17 7 24 0 8 -8 17 -8 32 0 16 9 21 9 21 0 0 -8 4 -8 15 1 9 7 15 8 15
2 0 -13 63 -10 72 3 5 6 8 5 8 -4 0 -11 3 -11 16 0 13 10 17 10 24 -1 7 -11
11 -11 24 -1 12 11 16 11 16 1 0 -9 4 -9 17 1 13 11 17 11 20 2 3 -7 9 -13 14
-13 6 0 8 4 5 8 -2 4 4 8 15 8 10 0 19 -4 19 -9 0 -4 6 -5 12 0 21 12 38 12
39 0 0 -7 4 -3 9 8 l9 20 0 -20 c1 -17 3 -17 11 -5 9 13 10 13 10 0 0 -13 1
-13 10 0 8 12 10 12 10 1 0 -10 3 -11 13 -2 10 7 17 7 24 0 8 -8 17 -8 32 0
16 9 21 9 21 0 0 -8 4 -8 15 1 9 7 15 8 15 2 0 -13 63 -10 72 3 5 6 8 5 8 -4
0 -11 3 -11 16 0 13 10 17 10 24 -1 7 -11 11 -11 24 -1 12 11 16 11 16 1 0 -9
4 -9 17 1 13 11 17 11 20 2 3 -7 9 -13 14 -13 6 0 8 4 5 8 -2 4 4 8 15 8 10 0
19 -4 19 -9 0 -4 6 -5 12 0 21 12 38 12 39 0 0 -7 4 -3 9 8 l9 20 0 -20 c1
-17 3 -17 11 -5 9 13 10 13 10 0 0 -13 1 -13 10 0 8 12 10 12 10 1 0 -10 3
-11 13 -2 10 7 17 7 24 0 8 -8 17 -8 32 0 16 9 21 9 21 0 0 -8 4 -8 15 1 9 7
15 8 15 2 0 -13 63 -10 72 3 5 6 8 5 8 -4 0 -11 3 -11 16 0 13 10 17 10 24 -1
7 -11 11 -11 24 -1 12 11 16 11 16 1 0 -9 4 -9 17 1 13 11 17 11 20 2 3 -7 9
-13 14 -13 6 0 8 4 5 8 -2 4 4 8 15 8 10 0 19 -4 19 -9 0 -4 6 -5 13 0 20 12
37 12 38 0 0 -7 4 -3 9 8 l9 20 0 -20 c1 -17 3 -17 11 -5 9 13 10 13 10 0 0
-13 1 -13 10 0 8 12 10 12 10 1 0 -10 3 -11 13 -2 10 7 17 7 24 0 8 -8 17 -8
32 0 16 9 21 9 21 0 0 -8 4 -8 15 1 9 7 15 8 15 2 0 -13 63 -10 72 3 5 6 8 5
8 -4 0 -11 3 -11 16 0 13 10 17 10 24 -1 7 -11 11 -11 24 -1 12 11 16 11 16 1
0 -9 4 -9 17 1 13 11 17 11 20 2 3 -7 9 -13 14 -13 6 0 8 4 5 8 -2 4 4 8 15 8
10 0 19 -4 19 -9 0 -4 6 -5 13 0 20 12 37 12 38 0 0 -7 4 -3 9 8 l9 20 0 -20
c1 -17 3 -17 11 -5 9 13 10 13 10 0 0 -13 1 -13 10 0 8 12 10 12 10 1 0 -10 3
-11 13 -2 10 7 17 7 24 0 8 -8 17 -8 32 0 16 9 21 9 21 0 0 -8 4 -8 15 1 9 7
15 8 15 2 0 -13 63 -10 72 3 5 6 8 5 8 -4 0 -11 3 -11 16 0 13 10 17 10 24 -1
7 -11 11 -11 24 -1 12 11 16 11 16 1 0 -9 4 -9 17 1 13 11 17 11 20 2 3 -7 9
-13 14 -13 6 0 8 4 5 8 -2 4 4 8 15 8 10 0 19 -4 19 -9 0 -4 6 -5 12 0 21 12
38 12 39 0 0 -7 4 -3 9 8 l9 20 0 -20 c1 -17 3 -17 11 -5 9 13 10 13 10 0 0
-13 1 -13 10 0 8 12 10 12 10 1 0 -10 3 -11 13 -2 10 7 17 7 24 0 8 -8 17 -8
32 0 16 9 21 9 21 0 0 -8 4 -8 15 1 9 7 15 8 15 2 0 -13 63 -10 72 3 5 6 8 5
8 -4 0 -11 3 -11 16 0 13 10 17 10 24 -1 7 -11 11 -11 24 -1 12 11 16 11 16 1
0 -9 4 -9 17 1 13 11 17 11 20 2 3 -7 9 -13 14 -13 6 0 8 4 5 8 -2 4 4 8 15 8
10 0 19 -4 19 -9 0 -4 6 -5 12 0 21 12 38 12 39 0 0 -7 4 -3 9 8 l9 20 0 -20
c1 -17 3 -17 11 -5 9 13 10 13 10 0 0 -13 1 -13 10 0 8 12 10 12 10 1 0 -10 3
-11 13 -2 10 7 17 7 24 0 8 -8 17 -8 32 0 16 9 21 9 21 0 0 -8 4 -8 15 1 9 7
15 8 15 2 0 -13 63 -10 72 3 5 6 8 5 8 -4 0 -11 3 -11 16 0 13 10 17 10 24 -1
7 -11 11 -11 24 -1 12 11 16 11 16 1 0 -9 4 -9 17 1 13 11 17 11 20 2 3 -7 9
-13 14 -13 6 0 8 4 5 8 -2 4 4 8 15 8 10 0 19 -4 19 -9 0 -4 6 -5 13 0 20 12
37 12 38 0 0 -7 4 -3 9 8 l9 20 0 -20 c1 -17 3 -17 11 -5 9 13 10 13 10 0 0
-13 1 -13 10 0 8 12 10 12 10 1 0 -10 3 -11 13 -2 10 7 17 7 24 0 8 -8 17 -8
32 0 16 9 21 9 21 0 0 -8 4 -8 15 1 9 7 15 8 15 2 0 -13 63 -10 72 3 5 6 8 5
8 -4 0 -11 3 -11 16 0 13 10 17 10 24 -1 7 -11 11 -11 24 -1 12 11 16 11 16 1
0 -9 4 -9 17 1 13 11 17 11 20 2 3 -7 9 -13 14 -13 6 0 8 4 5 8 -2 4 4 8 15 8
10 0 19 -4 19 -9 0 -4 6 -5 13 0 20 12 37 12 38 0 0 -7 4 -3 9 8 l9 20 0 -20
c1 -17 3 -17 11 -5 9 13 10 13 10 0 0 -13 1 -13 10 0 8 12 10 12 10 1 0 -10 3
-11 13 -2 10 7 17 7 24 0 8 -8 17 -8 32 0 16 9 21 9 21 0 0 -8 4 -8 15 1 9 7
15 8 15 2 0 -13 63 -10 72 3 5 6 8 5 8 -4 0 -11 3 -11 16 0 13 10 17 10 24 -1
7 -11 11 -11 24 -1 12 11 16 11 16 1 0 -9 4 -9 17 1 13 11 17 11 20 2 3 -7 9
-13 14 -13 6 0 8 4 5 8 -2 4 4 8 15 8 10 0 19 -4 19 -9 0 -4 6 -5 13 0 20 12
37 12 38 0 0 -7 4 -3 9 8 l9 20 0 -20 c1 -17 3 -17 11 -5 9 13 10 13 10 0 0
-13 1 -13 10 0 8 12 10 12 10 1 0 -10 3 -11 13 -2 10 7 17 7 24 0 8 -8 17 -8
32 0 16 9 21 9 21 0 0 -8 4 -8 15 1 9 7 15 8 15 2 0 -13 63 -10 72 3 5 6 8 5
8 -4 0 -11 3 -11 16 0 13 10 17 10 24 -1 7 -11 11 -11 24 -1 12 11 16 11 16 1
0 -9 4 -9 17 1 13 11 17 11 20 2 3 -7 9 -13 14 -13 6 0 8 4 5 8 -2 4 4 8 15 8
10 0 19 -4 19 -9 0 -4 6 -5 13 0 20 12 37 12 38 0 0 -7 4 -3 9 8 l9 20 0 -20
c1 -17 3 -17 11 -5 9 13 10 13 10 0 0 -13 1 -13 10 0 8 12 10 12 10 1 0 -10 3
-11 13 -2 10 7 17 7 24 0 8 -8 17 -8 32 0 16 9 21 9 21 0 0 -8 4 -8 15 1 9 7
15 8 15 2 0 -13 63 -10 72 3 5 6 8 5 8 -4 0 -11 3 -11 16 0 13 10 17 10 24 -1
7 -11 11 -11 24 -1 12 11 16 11 16 1 0 -9 4 -9 17 1 13 11 17 11 20 2 3 -7 9
-13 14 -13 6 0 8 4 5 8 -2 4 4 8 15 8 10 0 19 -4 19 -9 0 -4 6 -5 12 0 21 12
38 12 39 0 0 -7 4 -3 9 8 l9 20 0 -20 c1 -17 3 -17 11 -5 9 13 10 13 10 0 0
-13 1 -13 10 0 8 12 10 12 10 1 0 -10 3 -11 13 -2 10 7 17 7 24 0 8 -8 17 -8
32 0 16 9 21 9 21 0 0 -8 4 -8 15 1 9 7 15 8 15 2 0 -13 63 -10 72 3 5 6 8 5
8 -4 0 -11 3 -11 16 0 13 10 17 10 24 -1 7 -11 11 -11 24 -1 12 11 16 11 16 1
0 -9 4 -9 17 1 13 11 17 11 20 2 3 -7 9 -13 14 -13 6 0 8 4 5 8 -2 4 4 8 15 8
10 0 19 -4 19 -9 0 -4 6 -5 13 0 20 12 37 12 38 0 0 -7 4 -3 9 8 l9 20 0 -20
c1 -17 3 -17 11 -5 9 13 10 13 10 0 0 -13 1 -13 10 0 8 12 10 12 10 1 0 -10 3
-11 13 -2 10 7 17 7 24 0 8 -8 17 -8 32 0 16 9 21 9 21 0 0 -8 4 -8 15 1 9 7
15 8 15 2 0 -13 63 -10 72 3 5 6 8 5 8 -4 0 -11 3 -11 16 0 13 10 17 10 24 -1
7 -11 11 -11 24 -1 12 11 16 11 16 1 0 -9 4 -9 17 1 13 11 17 11 20 2 3 -7 9
-13 14 -13 6 0 8 4 5 8 -2 4 4 8 15 8 10 0 19 -4 19 -9 0 -4 6 -5 13 0 20 12
37 12 38 0 0 -7 4 -3 9 8 l9 20 0 -20 c1 -17 3 -17 11 -5 9 13 10 13 10 0 0
-13 1 -13 10 0 8 12 10 12 10 1 0 -10 3 -11 13 -2 10 7 17 7 24 0 8 -8 17 -8
32 0 16 9 21 9 21 0 0 -8 4 -8 15 1 9 7 15 8 15 2 0 -13 63 -10 72 3 5 6 8 5
8 -4 0 -11 3 -11 16 0 13 10 17 10 24 -1 7 -11 11 -11 24 -1 12 11 16 11 16 1
0 -9 4 -9 17 1 13 11 17 11 20 2 3 -7 9 -13 14 -13 6 0 8 4 5 8 -2 4 4 8 15 8
10 0 19 -4 19 -9 0 -4 6 -5 13 0 20 12 37 12 38 0 0 -7 4 -3 9 8 l9 20 0 -20
c1 -17 3 -17 11 -5 9 13 10 13 10 0 0 -13 1 -13 10 0 8 12 10 12 10 1 0 -10 3
-11 13 -2 10 7 17 7 24 0 8 -8 17 -8 32 0 16 9 21 9 21 0 0 -8 4 -8 15 1 9 7
15 8 15 2 0 -13 63 -10 72 3 5 6 8 5 8 -4 0 -11 3 -11 16 0 13 10 17 10 24 -1
7 -11 11 -11 24 -1 12 11 16 11 16 1 0 -9 4 -9 17 1 13 11 17 11 20 2 3 -7 9
-13 14 -13 6 0 8 4 5 8 -2 4 4 8 15 8 10 0 19 -4 19 -9 0 -4 6 -5 13 0 20 12
37 12 38 0 0 -7 4 -3 9 8 l9 20 0 -20 c1 -17 3 -17 11 -5 9 13 10 13 10 0 0
-13 1 -13 10 0 8 12 10 12 10 1 0 -10 3 -11 13 -2 10 7 17 7 24 0 8 -8 17 -8
32 0 16 9 21 9 21 0 0 -8 4 -8 15 1 9 7 15 8 15 2 0 -13 63 -10 72 3 5 6 8 5
8 -4 0 -11 3 -11 16 0 13 10 17 10 24 -1 7 -11 11 -11 24 -1 12 11 16 11 16 1
0 -9 4 -9 17 1 13 11 17 11 20 2 3 -7 9 -13 14 -13 6 0 8 4 5 8 -2 4 4 8 15 8
10 0 19 -4 19 -9 0 -4 6 -5 12 0 21 12 38 12 39 0 0 -7 4 -3 9 8 l9 20 0 -20
c1 -17 3 -17 11 -5 9 13 10 13 10 0 0 -13 1 -13 10 0 8 12 10 12 10 1 0 -10 3
-11 13 -2 10 7 17 7 24 0 8 -8 17 -8 32 0 16 9 21 9 21 0 0 -8 4 -8 15 1 9 7
15 8 15 2 0 -13 63 -10 72 3 5 6 8 5 8 -4 0 -11 3 -11 16 0 13 10 17 10 24 -1
7 -11 11 -11 24 -1 12 11 16 11 16 1 0 -9 4 -9 17 1 13 11 17 11 20 2 3 -7 9
-13 14 -13 6 0 8 4 5 8 -2 4 4 8 15 8 10 0 19 -4 19 -9 0 -4 6 -5 13 0 20 12
37 12 38 0 0 -7 4 -3 9 8 l9 20 0 -20 c1 -17 3 -17 11 -5 9 13 10 13 10 0 0
-13 1 -13 10 0 8 12 10 12 10 1 0 -10 3 -11 13 -2 10 7 17 7 24 0 8 -8 17 -8
32 0 16 9 21 9 21 0 0 -8 4 -8 15 1 9 7 15 8 15 2 0 -13 63 -10 72 3 5 6 8 5
8 -4 0 -11 3 -11 16 0 13 10 17 10 24 -1 7 -11 11 -11 24 -1 12 11 16 11 16 1
0 -9 4 -9 17 1 13 11 17 11 20 2 3 -7 9 -13 14 -13 6 0 7 6 3 12 -6 10 -4 10
8 0 14 -11 18 -10 27 5 10 17 10 17 11 -1 0 -15 3 -16 15 -6 9 7 18 10 22 6 3
-3 0 -6 -7 -6 -7 0 -10 -3 -7 -6 4 -4 13 -1 22 6 10 8 15 9 15 2 0 -6 7 -9 15
-6 8 4 12 11 9 18 -3 6 1 3 9 -6 16 -21 32 -24 21 -5 -5 7 0 6 11 -3 11 -9 16
-10 11 -3 -4 7 -2 13 3 13 6 0 11 -4 11 -10 0 -6 9 -6 25 0 18 7 25 6 26 -3 0
-6 4 -3 9 8 l9 20 0 -20 c1 -17 3 -17 11 -5 9 13 10 13 10 0 0 -13 1 -13 10 0
8 12 10 12 10 1 0 -10 3 -11 13 -2 10 7 17 7 24 0 8 -8 17 -8 32 0 16 9 21 9
21 0 0 -8 4 -8 15 1 9 7 15 8 15 2 0 -13 63 -10 72 3 5 6 8 5 8 -4 0 -11 3
-11 16 0 13 10 17 10 24 -1 7 -11 11 -11 24 -1 12 11 16 11 16 1 0 -9 4 -9 17
1 13 11 17 11 20 2 3 -7 9 -13 14 -13 6 0 8 4 5 8 -2 4 4 8 15 8 10 0 19 -4
19 -9 0 -4 6 -5 13 0 20 12 37 12 38 0 0 -7 4 -3 9 8 l9 20 0 -20 c1 -17 3
-17 11 -5 9 13 10 13 10 0 0 -13 1 -13 10 0 8 12 10 12 10 1 0 -10 3 -11 13
-2 10 7 17 7 24 0 8 -8 17 -8 32 0 16 9 21 9 21 0 0 -8 4 -8 15 1 12 10 15 10
15 -1 0 -9 3 -10 8 -3 4 6 33 11 65 10 31 -1 57 2 57 5 0 4 14 5 30 4 17 -1
33 1 36 6 3 5 10 9 15 9 6 0 7 -6 3 -12 -5 -9 -3 -9 9 1 9 7 14 18 10 24 -3 6
-1 7 6 3 6 -4 9 -11 6 -16 -3 -4 4 -6 15 -3 11 3 18 8 16 12 -3 3 13 6 35 5
28 0 36 2 29 10 -6 8 1 11 26 11 19 -1 34 2 34 7 0 5 5 6 10 3 6 -3 10 -1 10
4 0 6 11 11 24 11 14 0 28 5 31 10 4 6 11 8 16 5 5 -4 9 -1 9 5 0 7 7 9 15 6
9 -3 18 1 21 9 4 8 10 12 15 9 5 -3 9 -1 9 5 0 6 7 7 17 4 10 -4 14 -2 10 4
-8 12 20 26 34 17 5 -3 9 2 9 10 0 9 9 16 20 16 12 0 20 7 20 16 0 14 3 15 18
3 9 -7 14 -10 10 -5 -10 12 15 34 32 28 8 -3 12 -2 8 2 -8 10 14 36 25 29 4
-2 7 1 7 6 0 6 7 11 16 11 8 0 12 5 9 10 -3 6 1 10 10 10 9 0 13 4 10 10 -6 9
8 15 29 11 5 -1 6 5 3 13 -4 9 -3 15 2 13 15 -4 113 102 105 115 -6 10 -4 10
8 0 13 -10 18 -10 24 -1 4 8 3 9 -4 5 -20 -12 -13 9 7 24 11 7 18 17 15 22 -3
4 0 8 5 8 6 0 11 6 11 14 0 7 10 21 23 30 12 9 15 14 7 11 -8 -4 -4 2 9 13 13
11 21 24 17 31 -4 6 -1 11 7 11 8 0 18 11 21 25 4 14 11 23 16 20 5 -3 7 0 4
8 -3 8 -1 18 5 21 6 4 7 14 4 24 -3 9 -2 14 2 9 8 -7 44 55 45 77 0 5 8 15 18
22 16 13 16 14 -3 7 -20 -6 -20 -6 -1 15 11 12 16 22 11 22 -4 0 0 12 10 26 9
15 12 23 6 20 -6 -4 -11 -2 -11 3 0 6 5 11 11 11 6 0 9 7 6 15 -4 8 -2 17 4
21 6 4 5 12 -3 22 -10 12 -10 14 0 8 7 -4 12 -1 12 9 0 9 5 13 10 10 13 -8 8
17 -5 27 -5 4 -1 16 10 29 11 12 14 19 8 15 -8 -4 -13 -1 -13 9 0 9 4 13 10
10 6 -4 10 1047 10 2989 0 2389 -2 2995 -12 2999 -10 4 -10 6 0 6 6 1 12 6 12
12 0 5 -6 7 -12 3 -9 -5 -9 -2 1 9 11 14 11 17 0 17 -11 0 -11 2 1 10 9 6 11
10 3 10 -7 0 -10 7 -6 17 4 9 2 14 -3 11 -5 -3 -10 12 -11 34 0 22 -6 45 -12
51 -6 6 -11 16 -11 22 0 5 5 3 10 -5 6 -9 10 -10 10 -3 0 6 -5 15 -11 18 -6 4
-8 13 -5 21 3 8 1 14 -4 14 -5 0 -6 7 -3 17 5 12 3 14 -7 8 -10 -6 -12 -3 -8
13 4 15 0 25 -10 32 -14 8 -14 9 -2 10 12 0 11 3 -3 11 -12 7 -16 17 -11 31 4
14 2 18 -5 14 -9 -6 -12 2 -11 29 1 3 -6 13 -15 21 -8 9 -13 20 -10 25 4 5 1
9 -5 9 -6 0 -8 5 -5 10 3 6 -1 10 -10 10 -9 0 -14 4 -10 9 3 5 0 15 -7 23 -7
7 -14 20 -16 28 -2 8 -10 22 -18 31 -8 9 -11 20 -7 24 5 5 1 4 -8 -3 -14 -10
-16 -9 -14 13 2 14 -1 23 -6 19 -5 -3 -9 2 -9 11 0 9 -4 14 -9 11 -4 -3 -13 6
-20 20 -6 15 -16 22 -23 18 -7 -4 -8 -3 -4 4 8 13 -6 44 -20 44 -5 0 -8 4 -6
9 1 5 -4 9 -11 9 -15 0 -47 35 -47 52 0 6 -3 8 -7 5 -3 -4 -12 2 -20 13 -8 11
-21 20 -29 20 -8 0 -13 3 -11 8 3 4 -1 13 -9 20 -8 7 -14 10 -14 7 0 -6 -17 7
-54 42 -13 12 -27 19 -30 16 -3 -4 -6 -1 -6 6 0 7 -4 9 -10 6 -5 -3 -10 1 -10
10 0 11 -5 15 -15 11 -8 -3 -15 -1 -15 5 0 6 -7 9 -15 5 -8 -3 -14 0 -12 7 1
7 -4 11 -10 9 -7 -1 -13 2 -13 6 0 13 -50 33 -62 26 -7 -4 -8 -2 -4 4 5 8 0
12 -13 12 -12 0 -21 5 -21 11 0 5 -5 7 -10 4 -5 -3 -10 -2 -10 4 0 5 -9 8 -20
6 -11 -2 -18 0 -15 6 4 5 -3 9 -14 9 -12 0 -21 4 -21 8 0 4 -12 8 -27 7 -16 0
-34 6 -41 15 -12 13 -12 13 -6 0 6 -12 5 -13 -7 -3 -8 7 -34 14 -56 15 -23 2
-39 6 -36 11 3 6 -64 12 -89 8 -5 0 -8 5 -8 11 0 9 -4 8 -11 -2 -8 -11 -12
-12 -16 -2 -2 6 -10 9 -16 5 -19 -12 -37 -12 -37 -1 0 6 -6 5 -15 -2 -13 -11
-14 -10 -8 6 7 19 6 19 -21 0 -16 -10 -26 -14 -22 -8 3 5 -1 12 -9 16 -8 3
-15 0 -15 -7 0 -8 -4 -6 -10 3 -8 13 -10 12 -10 -3 0 -17 -1 -17 -16 -3 -19
19 -34 21 -34 4 0 -9 -4 -8 -10 2 -6 9 -10 10 -10 3 0 -8 -9 -9 -30 -3 -25 7
-30 6 -30 -8 0 -11 -3 -13 -8 -6 -9 14 -62 24 -62 13 0 -5 -5 -9 -11 -9 -5 0
-8 3 -6 8 3 4 -8 7 -24 8 -15 1 -26 -2 -24 -6 2 -4 -2 -7 -10 -7 -8 0 -12 3
-10 7 2 4 -3 7 -11 7 -9 0 -13 -6 -9 -15 4 -11 2 -12 -7 -5 -18 14 -58 23 -58
13 0 -4 -16 -4 -35 0 -29 7 -35 5 -36 -9 0 -12 -2 -12 -9 4 -5 11 -9 14 -9 7
-1 -7 -6 -10 -12 -7 -6 4 -28 8 -50 9 -28 1 -39 -3 -40 -14 0 -10 -3 -8 -9 5
-6 13 -9 15 -9 5 -1 -12 -3 -12 -10 -2 -6 11 -10 10 -15 -5 -7 -16 -9 -16 -19
-3 -12 15 -107 24 -107 9 0 -4 -16 -3 -35 1 -29 7 -35 5 -36 -9 0 -12 -2 -12
-9 4 -5 11 -9 14 -9 6 -1 -11 -4 -11 -16 -1 -9 7 -15 8 -15 2 0 -6 -13 -7 -35
-2 -29 7 -35 5 -36 -9 0 -12 -2 -12 -9 4 -5 11 -9 14 -9 7 -1 -9 -6 -10 -20
-3 -10 6 -21 8 -23 5 -10 -9 -48 -13 -43 -3 4 5 1 9 -4 9 -6 0 -11 -8 -12 -17
0 -15 -2 -15 -9 2 -6 13 -9 15 -9 5 -1 -10 -4 -11 -9 -4 -8 11 -41 12 -86 0
-15 -4 -25 -3 -23 1 3 4 -8 8 -24 9 -15 1 -26 -2 -24 -6 2 -4 -2 -7 -10 -7 -8
0 -12 3 -10 7 2 4 -3 7 -11 7 -9 0 -13 -6 -9 -15 4 -11 2 -12 -7 -5 -18 14
-58 23 -58 13 0 -4 -16 -4 -35 0 -29 7 -35 5 -36 -9 0 -12 -2 -12 -9 4 -5 11
-9 14 -9 7 -1 -7 -6 -10 -12 -6 -6 3 -26 7 -45 9 -28 1 -34 -1 -29 -13 4 -11
2 -12 -7 -5 -18 14 -58 23 -58 13 0 -4 -16 -4 -35 0 -21 5 -35 4 -35 -1 0 -6
-10 -5 -22 2 -18 10 -20 9 -14 -7 6 -18 5 -18 -9 0 -8 11 -15 14 -15 8 0 -10
-5 -10 -20 -2 -15 8 -20 8 -20 -2 0 -9 -3 -9 -10 2 -8 13 -10 12 -10 -3 0 -17
-1 -17 -16 -3 -18 19 -38 21 -28 4 5 -8 0 -7 -11 2 -17 14 -18 13 -12 -4 6
-14 4 -16 -5 -9 -18 14 -58 23 -58 13 0 -4 -16 -4 -35 0 -21 5 -35 4 -35 -1 0
-6 -10 -5 -22 2 -18 10 -20 9 -14 -7 6 -18 5 -18 -9 0 -8 11 -15 14 -15 8 0
-10 -5 -10 -20 -2 -15 8 -20 8 -20 -2 0 -9 -3 -9 -10 2 -8 13 -10 12 -10 -3 0
-17 -1 -17 -17 -1 -11 11 -18 13 -21 5 -2 -6 -8 -11 -13 -11 -6 0 -8 3 -6 8 3
4 -8 7 -24 8 -15 1 -26 -2 -24 -6 2 -4 -2 -7 -10 -7 -8 0 -12 3 -10 7 2 4 -3
7 -11 7 -9 0 -13 -6 -9 -15 4 -11 2 -12 -7 -5 -18 14 -58 23 -58 13 0 -4 -16
-4 -35 0 -29 7 -35 5 -36 -9 0 -12 -2 -12 -9 4 -5 11 -9 14 -9 7 -1 -7 -6 -10
-12 -7 -6 4 -28 8 -50 9 -28 1 -39 -3 -40 -14 0 -10 -3 -8 -9 5 -6 13 -9 15
-9 5 -1 -12 -3 -12 -10 -2 -6 11 -10 10 -15 -5 -7 -16 -9 -16 -19 -3 -12 15
-107 24 -107 9 0 -4 -16 -3 -35 1 -29 7 -35 5 -36 -9 0 -12 -2 -12 -9 4 -5 11
-9 14 -9 6 -1 -11 -4 -11 -16 -1 -9 7 -15 8 -15 2 0 -6 -13 -7 -35 -2 -29 7
-35 5 -36 -9 0 -12 -2 -12 -9 4 -5 11 -9 14 -9 7 -1 -9 -6 -10 -20 -3 -10 6
-21 8 -23 5 -10 -9 -48 -13 -43 -3 4 5 1 9 -4 9 -6 0 -11 -8 -12 -17 0 -15 -2
-15 -9 2 -6 13 -9 15 -9 5 -1 -10 -4 -11 -9 -4 -8 11 -41 12 -86 0 -15 -4 -25
-3 -23 1 3 4 -8 8 -24 9 -15 1 -26 -2 -24 -6 2 -4 -2 -7 -10 -7 -8 0 -12 3
-10 7 2 4 -3 7 -11 7 -9 0 -13 -6 -9 -15 4 -11 2 -12 -7 -5 -18 14 -58 23 -58
13 0 -4 -16 -4 -35 0 -29 7 -35 5 -36 -9 0 -12 -2 -12 -9 4 -5 11 -9 14 -9 7
-1 -7 -6 -10 -12 -7 -6 4 -28 8 -50 9 -28 1 -39 -3 -40 -14 0 -10 -3 -8 -9 5
-6 13 -9 15 -9 5 -1 -12 -3 -12 -10 -2 -6 11 -10 10 -15 -5 -7 -16 -9 -16 -19
-3 -12 15 -107 24 -107 9 0 -4 -16 -3 -35 1 -29 7 -35 5 -36 -9 0 -12 -2 -12
-9 4 -5 11 -9 14 -9 6 -1 -11 -4 -11 -16 -1 -9 7 -15 8 -15 2 0 -6 -13 -7 -35
-2 -29 7 -35 5 -36 -9 0 -12 -2 -12 -9 4 -5 11 -9 14 -9 7 -1 -9 -6 -10 -20
-3 -10 6 -21 8 -23 5 -10 -9 -48 -13 -43 -3 4 5 1 9 -4 9 -6 0 -11 -8 -12 -17
0 -15 -2 -15 -9 2 -6 13 -9 15 -9 5 -1 -9 -4 -11 -9 -5 -12 17 -126 13 -134
-5 -5 -11 -7 -10 -7 5 -1 17 -3 17 -11 5 -8 -13 -10 -13 -10 -1 0 11 -4 10
-14 -4 -11 -15 -15 -16 -22 -4 -9 14 -104 22 -104 8 0 -4 -16 -3 -35 1 -29 7
-35 5 -36 -9 0 -12 -2 -12 -9 4 -5 11 -9 14 -9 6 -1 -11 -4 -11 -16 -1 -9 7
-15 8 -15 2 0 -6 -13 -7 -35 -2 -29 7 -35 5 -36 -9 0 -12 -2 -12 -9 4 -5 11
-9 14 -9 7 -1 -9 -6 -10 -20 -3 -10 6 -21 8 -23 5 -10 -9 -48 -13 -43 -3 4 5
1 9 -4 9 -6 0 -11 -8 -12 -17 0 -15 -2 -15 -9 2 -6 13 -9 15 -9 5 -1 -9 -4
-11 -9 -5 -12 17 -126 13 -134 -5 -5 -11 -7 -10 -7 5 -1 17 -3 17 -11 5 -8
-13 -10 -13 -10 -1 0 11 -4 10 -14 -4 -11 -15 -15 -16 -22 -4 -9 14 -104 22
-104 8 0 -4 -16 -3 -35 1 -29 7 -35 5 -36 -9 0 -12 -2 -12 -9 4 -5 11 -9 14
-9 6 -1 -11 -4 -11 -16 -1 -9 7 -15 8 -15 2 0 -6 -13 -7 -35 -2 -29 7 -35 5
-36 -9 0 -12 -2 -12 -9 4 -5 11 -9 14 -9 7 -1 -9 -6 -10 -20 -3 -10 6 -21 8
-23 5 -10 -9 -48 -13 -43 -3 4 5 1 9 -4 9 -6 0 -11 -8 -12 -17 0 -15 -2 -15
-9 2 -6 13 -9 15 -9 5 -1 -9 -4 -11 -9 -5 -12 17 -126 13 -134 -5 -5 -11 -7
-10 -7 5 -1 17 -3 17 -11 5 -8 -13 -10 -13 -10 -1 0 11 -4 10 -14 -4 -11 -15
-15 -16 -22 -4 -9 14 -104 22 -104 8 0 -4 -16 -3 -35 1 -29 7 -35 5 -36 -9 0
-12 -2 -12 -9 4 -5 11 -9 14 -9 6 -1 -11 -4 -11 -16 -1 -9 7 -15 8 -15 2 0 -6
-13 -7 -35 -2 -29 7 -35 5 -36 -9 0 -12 -2 -12 -9 4 -5 11 -9 14 -9 7 -1 -9
-6 -10 -20 -3 -10 6 -21 8 -23 5 -10 -9 -48 -13 -43 -3 4 5 1 9 -4 9 -6 0 -11
-8 -12 -17 0 -15 -2 -15 -9 2 -6 13 -9 15 -9 5 -1 -10 -4 -11 -9 -4 -8 11 -41
12 -86 0 -15 -4 -25 -3 -23 1 3 4 -8 8 -24 9 -15 1 -26 -2 -24 -6 2 -4 -2 -7
-10 -7 -8 0 -12 3 -10 7 2 4 -3 7 -11 7 -9 0 -13 -6 -9 -15 4 -11 2 -12 -7 -5
-18 14 -58 23 -58 13 0 -4 -16 -4 -35 0 -29 7 -35 5 -36 -9 0 -12 -2 -12 -9 4
-5 11 -9 14 -9 7 -1 -7 -6 -10 -12 -7 -6 4 -28 8 -50 9 -28 1 -39 -3 -40 -14
0 -10 -3 -8 -9 5 -6 13 -9 15 -9 5 -1 -12 -3 -12 -10 -2 -6 11 -10 10 -15 -5
-7 -16 -9 -16 -19 -3 -12 15 -107 24 -107 9 0 -4 -16 -3 -35 1 -29 7 -35 5
-36 -9 0 -12 -2 -12 -9 4 -5 11 -9 14 -9 6 -1 -11 -4 -11 -16 -1 -9 7 -15 8
-15 2 0 -6 -13 -7 -35 -2 -29 7 -35 5 -36 -9 0 -12 -2 -12 -9 4 -5 11 -9 14
-9 7 -1 -9 -6 -10 -20 -3 -10 6 -21 8 -23 5 -10 -9 -48 -13 -43 -3 4 5 1 9 -4
9 -6 0 -11 -8 -12 -17 0 -15 -2 -15 -9 2 -6 13 -9 15 -9 5 -1 -10 -4 -11 -9
-4 -8 11 -41 12 -86 0 -15 -4 -25 -3 -23 1 3 4 -8 8 -24 9 -15 1 -26 -2 -24
-6 2 -4 -2 -7 -10 -7 -8 0 -12 3 -10 7 2 4 -3 7 -11 7 -9 0 -13 -6 -9 -15 4
-11 2 -12 -7 -5 -18 14 -58 23 -58 13 0 -4 -16 -4 -35 0 -29 7 -35 5 -36 -9 0
-12 -2 -12 -9 4 -5 11 -9 14 -9 7 -1 -7 -6 -10 -12 -6 -6 3 -26 7 -45 9 -28 1
-34 -1 -29 -13 4 -11 2 -12 -7 -5 -18 14 -58 23 -58 13 0 -4 -16 -4 -35 0 -21
5 -35 4 -35 -1 0 -6 -10 -5 -22 2 -18 10 -20 9 -14 -7 6 -18 5 -18 -9 0 -8 11
-15 14 -15 8 0 -10 -5 -10 -20 -2 -15 8 -20 8 -20 -2 0 -9 -3 -9 -10 2 -8 13
-10 12 -10 -3 0 -17 -1 -17 -16 -3 -18 19 -38 21 -28 4 5 -8 0 -7 -11 2 -17
14 -18 13 -12 -4 6 -14 4 -16 -5 -9 -18 14 -58 23 -58 13 0 -4 -16 -4 -35 0
-21 5 -35 4 -35 -1 0 -6 -10 -5 -22 2 -18 10 -20 9 -14 -7 6 -18 5 -18 -9 0
-8 11 -15 14 -15 8 0 -10 -5 -10 -20 -2 -15 8 -20 8 -20 -2 0 -9 -3 -9 -10 2
-8 13 -10 12 -10 -3 0 -17 -1 -17 -17 -1 -11 11 -18 13 -21 5 -2 -6 -8 -11
-13 -11 -6 0 -8 3 -6 8 3 4 -8 7 -24 8 -15 1 -26 -2 -24 -6 2 -4 -2 -7 -10 -7
-8 0 -12 3 -10 7 2 4 -3 7 -11 7 -9 0 -13 -6 -9 -15 4 -11 2 -12 -7 -5 -18 14
-58 23 -58 13 0 -4 -16 -4 -35 0 -29 7 -35 5 -36 -9 0 -12 -2 -12 -9 4 -5 11
-9 14 -9 7 -1 -7 -6 -10 -12 -7 -6 4 -28 8 -50 9 -28 1 -39 -3 -40 -14 0 -10
-3 -8 -9 5 -6 13 -9 15 -9 5 -1 -12 -3 -12 -10 -2 -6 11 -10 10 -15 -5 -7 -16
-9 -16 -19 -3 -12 15 -107 24 -107 9 0 -4 -16 -3 -35 1 -29 7 -35 5 -36 -9 0
-12 -2 -12 -9 4 -5 11 -9 14 -9 6 -1 -11 -4 -11 -16 -1 -9 7 -15 8 -15 2 0 -6
-13 -7 -35 -2 -29 7 -35 5 -36 -9 0 -12 -2 -12 -9 4 -5 11 -9 14 -9 7 -1 -9
-6 -10 -20 -3 -10 6 -21 8 -23 5 -10 -9 -48 -13 -43 -3 4 5 1 9 -4 9 -6 0 -11
-8 -12 -17 0 -15 -2 -15 -9 2 -6 13 -9 15 -9 5 -1 -10 -4 -11 -9 -4 -8 11 -41
12 -86 0 -15 -4 -25 -3 -23 1 3 4 -8 8 -24 9 -15 1 -26 -2 -24 -6 2 -4 -2 -7
-10 -7 -8 0 -12 3 -10 7 2 4 -3 7 -11 7 -9 0 -13 -6 -9 -15 4 -11 2 -12 -7 -5
-18 14 -58 23 -58 13 0 -4 -16 -4 -35 0 -29 7 -35 5 -36 -9 0 -12 -2 -12 -9 4
-5 11 -9 14 -9 7 -1 -7 -6 -10 -12 -6 -6 3 -26 7 -45 9 -28 1 -34 -1 -29 -13
4 -11 2 -12 -7 -5 -18 14 -58 23 -58 13 0 -4 -16 -4 -35 0 -21 5 -35 4 -35 -1
0 -6 -10 -5 -22 2 -18 10 -20 9 -14 -7 6 -18 5 -18 -9 0 -8 11 -15 14 -15 8 0
-10 -5 -10 -20 -2 -15 8 -20 8 -20 -2 0 -9 -3 -9 -10 2 -8 13 -10 12 -10 -3 0
-17 -1 -17 -16 -3 -18 19 -38 21 -28 4 5 -8 0 -7 -11 2 -17 14 -18 13 -12 -4
6 -14 4 -16 -5 -9 -18 14 -58 23 -58 13 0 -4 -16 -4 -35 0 -21 5 -35 4 -35 -1
0 -6 -10 -5 -22 2 -18 10 -20 9 -14 -7 6 -18 5 -18 -9 0 -8 11 -15 14 -15 8 0
-9 -5 -10 -19 -2 -14 7 -21 6 -24 -3 -4 -8 -6 -8 -6 2 -1 11 -5 10 -17 -5 -8
-10 -13 -14 -10 -8 3 7 -1 14 -9 18 -8 3 -15 1 -15 -4 0 -5 -7 -7 -15 -4 -9 4
-15 1 -15 -7 0 -8 -5 -6 -13 6 -11 14 -16 15 -22 5 -6 -9 -4 -11 6 -5 8 5 10
4 6 0 -12 -14 -38 -15 -30 -2 4 7 -1 6 -10 -2 -15 -12 -21 -9 -18 12 2 12 -9
8 -15 -6z m-770 -653 c3 -8 2 -12 -4 -9 -6 3 -10 10 -10 16 0 14 7 11 14 -7z
m11666 6 c0 -5 -5 -10 -11 -10 -5 0 -7 5 -4 10 3 6 8 10 11 10 2 0 4 -4 4 -10z
m-12020 -459 c0 -6 -4 -12 -8 -15 -5 -3 -9 1 -9 9 0 8 4 15 9 15 4 0 8 -4 8
-9z m10780 -397 c0 -8 -19 -13 -24 -6 -3 5 1 9 9 9 8 0 15 -2 15 -3z m-87 -59
c-3 -9 -8 -14 -10 -11 -3 3 -2 9 2 15 9 16 15 13 8 -4z m-1998 -1364 c3 -5 2
-12 -3 -15 -5 -3 -9 1 -9 9 0 17 3 19 12 6z m-710 -481 c-3 -5 -12 -10 -18
-10 -7 0 -6 4 3 10 19 12 23 12 15 0z m-3530 -60 c3 -5 1 -10 -4 -10 -6 0 -11
5 -11 10 0 6 2 10 4 10 3 0 8 -4 11 -10z m2779 -458 c3 -5 -1 -9 -9 -9 -8 0
-12 4 -9 9 3 4 7 8 9 8 2 0 6 -4 9 -8z m261 -50 c-3 -3 -11 0 -18 7 -9 10 -8
11 6 5 10 -3 15 -9 12 -12z m-2137 -117 c-3 -3 -9 2 -12 12 -6 14 -5 15 5 6 7
-7 10 -15 7 -18z m-627 -2 c13 -16 12 -17 -3 -4 -10 7 -18 15 -18 17 0 8 8 3
21 -13z m2923 -11 c3 -5 -1 -9 -9 -9 -8 0 -12 4 -9 9 3 4 7 8 9 8 2 0 6 -4 9
-8z m-1834 -242 c0 -5 -2 -10 -4 -10 -3 0 -8 5 -11 10 -3 6 -1 10 4 10 6 0 11
-4 11 -10z m200 -34 c0 -3 -4 -8 -10 -11 -5 -3 -10 -1 -10 4 0 6 5 11 10 11 6
0 10 -2 10 -4z m3555 -1334 c-3 -3 -11 0 -18 7 -9 10 -8 11 6 5 10 -3 15 -9
12 -12z m1286 -1069 c13 -16 12 -17 -3 -4 -10 7 -18 15 -18 17 0 8 8 3 21 -13z
m179 -143 c0 -5 -5 -10 -11 -10 -5 0 -7 5 -4 10 3 6 8 10 11 10 2 0 4 -4 4
-10z m275 -229 c3 -5 2 -12 -3 -15 -5 -3 -9 1 -9 9 0 17 3 19 12 6z"/>
</g>
</svg>
